# xmcd CD database file
#
# Track frame offsets:
#	225
#	2700
#	15866
#	28398
#	46070
#	61170
#	73211
#	86265
#	105135
#	115635
#	123032
#	136610
#	149756
#	158480
#
# Disc length: 2368 seconds
#
# Revision: 0
# Processed by: cddbd v1.4PL0 Copyright (c) Steve Scherf et al.
# Submitted via: CDex 1.51
#
DISCID=a0093d0e
DTITLE=Michal Tucny - Jak to doopravdy bylo
DYEAR=1982
DGENRE=Country
TTITLE0=Intro
TTITLE1=Tak uz mi nefnukej
TTITLE2=Snidane v trave
TTITLE3=Mam paru
TTITLE4=Indian banjo
TTITLE5=Delame co muzem
TTITLE6=Jak to doopravdy bylo
TTITLE7=Posledni kovboj
TTITLE8=Cesty toulavy
TTITLE9=Cesty toulavy - pridavek
TTITLE10=Tennessee lullaby
TTITLE11=Blues Folsomske veznice
TTITLE12=Blues Folsomske veznice - pridavek
TTITLE13=Spim v obili
EXTD=YEAR: 1982
EXTT0=
EXTT1=
EXTT2=
EXTT3=
EXTT4=
EXTT5=
EXTT6=
EXTT7=
EXTT8=
EXTT9=
EXTT10=
EXTT11=
EXTT12=
EXTT13=
PLAYORDER=
